<?xml version="1.0" encoding="utf-8"?>
<!-- Generator: Adobe Illustrator 18.1.1, SVG Export Plug-In . SVG Version: 6.00 Build 0)  -->
<svg version="1.1" xmlns="http://www.w3.org/2000/svg" xmlns:xlink="http://www.w3.org/1999/xlink" x="0px" y="0px"
	 viewBox="0 0 1500 948" enable-background="new 0 0 1500 948" xml:space="preserve">
<g id="Rectangle_1_1_" enable-background="new    ">
	<g id="Rectangle_1">
		<g>
			<rect fill-rule="evenodd" clip-rule="evenodd" fill="#E0F7FA" width="1500" height="948"/>
		</g>
	</g>
</g>
<g id="Ellipse_1_2_" enable-background="new    ">
	<g id="Ellipse_1">
		<g>
			<path fill="#FFEE58" d="M0,219.994c73.499-0.27,133-59.931,133-133.494c0-33.001-11.981-63.2-31.822-86.5H0V219.994z"/>
		</g>
	</g>
</g>
<g id="Ellipse_3_2_" enable-background="new    ">
	<g id="Ellipse_3">
		<g>
			<path fill="#FFFFFF" d="M496.058,234.78C499.223,227.837,501,220.128,501,212c0-30.376-24.624-55-55-55
				c-17.964,0-33.914,8.616-43.951,21.937C392.164,173.262,380.716,170,368.5,170c-32.67,0-59.916,23.211-66.155,54.042
				C276.603,224.916,256,246.045,256,272c0,26.51,21.49,48,48,48c11.972,0,22.912-4.393,31.319-11.642
				C342.679,334.683,366.826,354,395.5,354c20.793,0,39.204-10.163,50.565-25.783C453.734,332.529,462.576,335,472,335
				c29.271,0,53-23.729,53-53C525,261.394,513.232,243.548,496.058,234.78z"/>
		</g>
	</g>
</g>
<g id="Shape_19_1_" enable-background="new    ">
	<g id="Shape_19">
		<g>
			<path fill="#69F0AE" d="M1500,547.009c-60.356-8.101-129.109-13.5-169-13.009c-80.765,0.993-658.855,75.521-724,46
				c-65.145-29.521-348.782-54.774-390-25c-29.521,21.325-150.635,36.212-217,42.945V948h1500V547.009z"/>
		</g>
	</g>
</g>
<g id="Shape_18_1_" enable-background="new    ">
	<g id="Shape_18">
		<g>
			<polygon fill="#3E2723" points="1500,875.858 700,580 276,555 0,932.825 0,948 1500,948 			"/>
		</g>
	</g>
</g>
<g id="Shape_18_copy_1_" enable-background="new    ">
	<g id="Shape_18_copy">
		<g>
			<path fill="#D7CCC8" d="M592,567l-1,9l42.883,105.722l32.185-2.984L592,567z M750.719,800.893L699,801l71.213,147H880.45
				L750.719,800.893z M670.348,685.195l-33.204,4.568c0,0,40.471,63.935,47.856,86.238l44.912-0.948L670.348,685.195z"/>
		</g>
	</g>
</g>
<g id="Shape_16_2_" enable-background="new    ">
	<g id="Shape_16">
		<g>
			<path fill="#0097A7" d="M0,608h1500V449.595c-79.209-82.858-233.191-196.184-440-123.595c-308.934,108.434-719.482-11.438-808-59
				c-57.688-30.997-162.458-46.72-252-33.938V608z"/>
		</g>
	</g>
</g>
<g id="Shape_16_copy" enable-background="new    ">
	<g>
		<defs>
			<path id="SVGID_1_" d="M0,608h1500V449.595c-79.209-82.858-233.191-196.184-440-123.595c-308.934,108.434-719.482-11.438-808-59
				c-57.688-30.997-162.458-46.72-252-33.938V608z"/>
		</defs>
		<clipPath id="SVGID_2_">
			<use xlink:href="#SVGID_1_"  overflow="visible"/>
		</clipPath>
		<g id="Shape_17" clip-path="url(#SVGID_2_)">
			<g>
				<path fill-rule="evenodd" clip-rule="evenodd" fill="#4DD0E1" d="M1088,616c-22.783-204.661-507.925-136.006-635-187
					c-133.728-53.664-119-132-119-132l-24-19c-54.388,168.559,148.791,190.407,362,217s177,128,177,128L1088,616z"/>
			</g>
		</g>
	</g>
</g>
<g id="Shape_20_copy_2_1_" enable-background="new    ">
	<g id="Shape_20_copy_2">
		<g>
			<polygon fill-rule="evenodd" clip-rule="evenodd" fill="#26A69A" points="1318.365,430.49 1231,642.167 1405.073,642.167 			"/>
		</g>
	</g>
</g>
<g id="Shape_20_copy_7" enable-background="new    ">
	<g>
		<defs>
			<polygon id="SVGID_3_" points="1318.365,430.49 1231,642.167 1405.073,642.167 			"/>
		</defs>
		<clipPath id="SVGID_4_">
			<use xlink:href="#SVGID_3_"  overflow="visible"/>
		</clipPath>
		<g id="Shape_21" clip-path="url(#SVGID_4_)">
			<g>
				<polygon fill-rule="evenodd" clip-rule="evenodd" fill="#00897B" points="1319,418 1294,674 1442,673 				"/>
			</g>
		</g>
	</g>
</g>
<g id="Shape_20_copy_4_1_" enable-background="new    ">
	<g id="Shape_20_copy_4">
		<g>
			<polygon fill-rule="evenodd" clip-rule="evenodd" fill="#689F38" points="1213.365,462.49 1126,674.167 1300.073,674.167 			"/>
		</g>
	</g>
</g>
<g id="Shape_20_copy_6" enable-background="new    ">
	<g>
		<defs>
			<polygon id="SVGID_5_" points="1213.365,462.49 1126,674.167 1300.073,674.167 			"/>
		</defs>
		<clipPath id="SVGID_6_">
			<use xlink:href="#SVGID_5_"  overflow="visible"/>
		</clipPath>
		<g id="Shape_21_copy_2" clip-path="url(#SVGID_6_)">
			<g>
				<polygon fill-rule="evenodd" clip-rule="evenodd" fill="#558B2F" points="1214,450 1189,706 1337,705 				"/>
			</g>
		</g>
	</g>
</g>
<g id="Shape_20_copy_3_1_" enable-background="new    ">
	<g id="Shape_20_copy_3">
		<g>
			<polygon fill-rule="evenodd" clip-rule="evenodd" fill="#388E3C" points="1376.365,472.49 1289,684.167 1463.073,684.167 			"/>
		</g>
	</g>
</g>
<g id="Shape_20_copy_5" enable-background="new    ">
	<g>
		<defs>
			<polygon id="SVGID_7_" points="1376.365,472.49 1289,684.167 1463.073,684.167 			"/>
		</defs>
		<clipPath id="SVGID_8_">
			<use xlink:href="#SVGID_7_"  overflow="visible"/>
		</clipPath>
		<g id="Shape_21_copy" clip-path="url(#SVGID_8_)">
			<g>
				<polygon fill-rule="evenodd" clip-rule="evenodd" fill="#2E7D32" points="1377,460 1352,716 1500,715 				"/>
			</g>
		</g>
	</g>
</g>
<g id="Group_1_1_">
	<g id="mirros_1_">
		<g id="Ellipse_1_1_">
			<g>
				<path fill="#E7E7E7" d="M186.497,464.774l-25.765-16.683c3.849-4.463,6.182-10.273,6.182-16.631
					c0-14.07-11.398-25.476-25.457-25.476c-14.06,0-25.457,11.406-25.457,25.476s11.398,25.476,25.457,25.476
					c3.585,0,6.996-0.745,10.09-2.084l29.075,23.64L186.497,464.774z"/>
			</g>
		</g>
		<g>
			<defs>
				<path id="SVGID_9_" d="M186.497,464.774l-25.765-16.683c3.849-4.463,6.182-10.273,6.182-16.631
					c0-14.07-11.398-25.476-25.457-25.476c-14.06,0-25.457,11.406-25.457,25.476s11.398,25.476,25.457,25.476
					c3.585,0,6.996-0.745,10.09-2.084l29.075,23.64L186.497,464.774z"/>
			</defs>
			<clipPath id="SVGID_10_">
				<use xlink:href="#SVGID_9_"  overflow="visible"/>
			</clipPath>
			<g id="Shape_5" opacity="0.251" clip-path="url(#SVGID_10_)">
				<g>
					<polygon fill-rule="evenodd" clip-rule="evenodd" fill="#30373F" points="174.747,431.46 141.457,431.46 141.457,456.935 
						147.332,464.774 184.538,482.411 190.565,457.963 					"/>
				</g>
			</g>
		</g>
		<g id="Ellipse_1_copy_2_">
			<g>
				<path fill="#E7E7E7" d="M634.934,405.984c-14.06,0-25.457,11.406-25.457,25.476c0,6.358,2.333,12.168,6.182,16.631
					l-25.764,16.683l5.875,13.718l29.075-23.64c3.094,1.339,6.505,2.084,10.09,2.084c14.06,0,25.457-11.406,25.457-25.476
					S648.994,405.984,634.934,405.984z"/>
			</g>
		</g>
		<g>
			<defs>
				<path id="SVGID_11_" d="M634.934,405.984c-14.06,0-25.457,11.406-25.457,25.476c0,6.358,2.333,12.168,6.182,16.631
					l-25.764,16.683l5.875,13.718l29.075-23.64c3.094,1.339,6.505,2.084,10.09,2.084c14.06,0,25.457-11.406,25.457-25.476
					S648.994,405.984,634.934,405.984z"/>
			</defs>
			<clipPath id="SVGID_12_">
				<use xlink:href="#SVGID_11_"  overflow="visible"/>
			</clipPath>
			<g id="Shape_5_copy" opacity="0.251" clip-path="url(#SVGID_12_)">
				<g>
					<polygon fill-rule="evenodd" clip-rule="evenodd" fill="#30373F" points="670.182,431.46 636.892,431.46 636.892,456.935 
						642.767,464.774 679.974,482.411 686,457.963 					"/>
				</g>
			</g>
		</g>
	</g>
	<g id="man">
		<g id="Shape_15">
			<g>
				<path fill-rule="evenodd" clip-rule="evenodd" fill="#00695C" d="M497.911,425.482l-17.586,0.383c0,0-31.242,0.235-32.113,7.271
					c-0.207,1.677-6.696,22.08-4.205,23.726c7.961,5.26,34.058,3.69,35.553,3.444c1.964-0.322,48.551-6.506,48.551-6.506
					l10.704-6.505C538.817,447.294,536.673,424.465,497.911,425.482z"/>
			</g>
		</g>
		<g id="Shape_14">
			<g>
				<path fill="#FFECB3" d="M510.114,338.473c0,0-8.272-8.858-9.19-8.33c-0.918,0.529-30.633,1.754-30.633,1.754l-21.443,23.674
					c0,0,0.037,6.948,0,7.453c-0.037,0.505,1.313,22.797,1.313,22.797l2.626,20.605l12.691,13.152c0,0,20.281,3.763,21.006,3.507
					s20.568-12.714,20.568-12.714l4.814-16.221v-28.058L510.114,338.473z M478.414,425.865c-0.05,0.985,0.765,6.123,0.765,6.123
					s5.12,1.913,10.322,1.913c5.119,0,10.322-1.913,10.322-1.913l-0.765-9.95L478.414,425.865z"/>
			</g>
		</g>
		<g id="Shape_13">
			<g>
				<path fill="#795548" d="M517.022,341.074c-0.386-5.446,0.01-9.84-6.127-14.029c-5.881-4.015-7.44-4.823-7.44-4.823
					s3.865,5.49,0,4.384c-3.865-1.106-6.893-7.242-22.756-7.891c-11.536,0-20.131,1.921-25.819,4.822c0,0,3.564-1.328,3.944,0.047
					c0.429,1.556-1.519,1.265-2.422,1.514c-0.902,0.248-3.027,0.801-5.023,5.016c-0.538-0.323-3.293-1.475-3.939-4.384
					c0,0-7.638,12.97-6.564,20.167c1.074,7.197,6.127,10.96,6.127,10.96s1.828,5.074,1.75,8.768l3.063,3.507
					c0,0-0.077-1.761-0.875-3.507c-0.095-0.382-0.438-7.891-0.438-7.891s10.793,2.511,17.505-3.069
					c6.712-5.58,10.192-17.444,33.696-19.29c0,0,4.283,1.177,3.939,7.014c-0.344,5.837-2.02,5.895,0.438,9.207
					c2.457,3.311,5.358,4.698,4.814,10.96c-0.547,6.285-0.875,7.891-0.875,7.891s1.818-3.404,2.626-3.507
					c0,0-0.733-1.847,0.438-5.699C514.255,357.388,517.408,346.52,517.022,341.074z M510.458,396.751
					c-1.274,5.248-4.031,9.175-6.127,11.837c-2.122,2.696-5.67,8.516-10.94,5.699c-4.113-2.198-3.063-5.261-3.063-5.261
					l-11.378,2.63c0,0,0.478,6.815-5.689,5.699c-6.167-1.116-14.35-3.592-16.629-9.207s-5.346-10.63-6.564-27.62
					c0,0-0.758,19.989,3.063,29.373c0,0,6.038,6.88,9.19,9.645c3.152,2.765,10.313,8.419,12.253,8.768s22.858,1.375,30.633-8.768
					c7.775-10.143,7.371-16.879,7.439-20.167c0.068-3.287-0.875-20.167-0.875-20.167S511.759,391.393,510.458,396.751z
					 M454.006,394.998c0.533,2.845,4.611,6.081,12.691,5.261s15.842-1.729,17.067-9.207c0,0,0.057-2.379,0.875,0
					c0.819,2.379,7.543,5.922,13.129,5.699s12.081-1.074,12.253-8.768c0,0-2.614,4.194-5.251,3.946
					c-7.975-0.751-4.522-5.072-15.317-5.699c-5.307-0.308-5.251,1.754-5.251,1.754s-0.479,0.874-2.188,0.438
					c-1.709-0.435-2.831-1.1-6.127-0.877c-3.296,0.223-6.904,2.665-10.94,5.261c-4.036,2.596-11.376,1.311-8.752-3.946
					C456.194,388.86,453.472,392.153,454.006,394.998z"/>
			</g>
		</g>
	</g>
	<g id="Shape_12">
		<g>
			<path d="M522.542,428.564l-14.711,12.337c-0.948,3.998-2.769,7.741-5.463,11.229c-4.904,6.349-11.447,10.028-19.628,11.039
				c-7.907,0.977-15.017-0.847-21.328-5.475c-6.032-4.626-9.111-10.832-9.111-10.832c-0.159-0.341-0.284-0.674-0.43-1.012
				l20.808-3.68c3.699,2.663,8.861,2.605,12.514-0.46c2.188-1.836,3.409-4.394,3.614-7.033l27.92-23.458
				c-4.44-7.534-10.601-13.184-18.478-16.949c-7.885-3.819-16.138-5.197-24.758-4.131c-12.08,1.493-21.821,7.045-29.22,16.656
				c-7.414,9.502-10.373,20.32-8.877,32.455c1.489,12.081,7.005,21.796,16.552,29.145c9.649,7.282,20.486,10.178,32.511,8.692
				c11.86-1.466,21.531-6.897,29.014-16.297C520.889,451.346,523.913,440.603,522.542,428.564z M475.225,404.225
				c7.907-0.977,15.016,0.849,21.328,5.475l-16.743,14.06c-2.69-0.311-5.497,0.432-7.736,2.311
				c-0.753,0.631-1.384,1.352-1.906,2.129l-20.893,3.639c0.325-5.899,2.384-11.336,6.188-16.307
				C460.4,409.013,466.988,405.243,475.225,404.225z"/>
		</g>
	</g>
	<g id="Ellipse_4">
		<g>
			<path fill-rule="evenodd" clip-rule="evenodd" fill="#FFECB3" d="M444.424,405.751c-2.422-1.461-6.547,0.944-9.212,5.372
				c-2.665,4.428-2.862,9.202-0.439,10.662c2.422,1.461,6.547-0.944,9.212-5.372C446.65,411.985,446.847,407.212,444.424,405.751z"
				/>
		</g>
	</g>
	<g id="Shape_3">
		<g>
			<path fill="#FFC107" d="M595.769,474.573c0,0-9.107-64.277-15.666-101.903c-6.559-37.627-43.593-53.801-68.539-58.79
				C486.62,308.889,388.196,308,388.196,308s-98.424,0.889-123.369,5.879c-24.945,4.99-61.979,21.164-68.538,58.79
				s-15.666,101.903-15.666,101.903s-46.998,13.411-46.998,47.032s0,64.669,0,64.669h74.413c0,0,21.245-33.315,48.956-33.315
				h131.202h131.202c27.711,0,48.956,33.315,48.956,33.315h74.413c0,0,0-31.048,0-64.669S595.769,474.573,595.769,474.573z
				 M555.858,442.73c-16.412-2.447-83.168,13.511-167.662,13.511c-84.494,0-151.25-15.958-167.662-13.511
				c-16.413,2.447-13.647-13.659-13.647-13.659s6.719-40.172,9.748-58.538c3.029-18.366,24.137-31.496,38.991-35.123
				c16.894-4.125,132.57-5.854,132.57-5.854s115.675,1.729,132.57,5.854c14.854,3.626,35.962,16.757,38.991,35.123
				c3.029,18.366,9.748,58.538,9.748,58.538S572.27,445.177,555.858,442.73z"/>
		</g>
	</g>
	<g id="Shape_4">
		<g>
			<path fill-rule="evenodd" clip-rule="evenodd" fill="#FECF0B" d="M280.492,490.25c-35.326,0-80.288-29.395-80.288-29.395
				l-15.666,11.758c0,0,38.126,17.619,56.789,27.435c18.663,9.816,23.669,16.945,31.332,27.436
				c7.663,10.49,27.415,13.718,27.415,13.718h88.121V490.25C388.196,490.25,315.819,490.25,280.492,490.25z"/>
		</g>
	</g>
	<g id="Shape_4_copy">
		<g>
			<path fill-rule="evenodd" clip-rule="evenodd" fill="#FBAD18" d="M576.187,460.855c0,0-44.961,29.395-80.288,29.395
				c-35.326,0-107.703,0-107.703,0v50.952h88.121c0,0,19.753-3.227,27.415-13.718c7.663-10.49,12.669-17.619,31.332-27.436
				c18.663-9.816,56.789-27.435,56.789-27.435L576.187,460.855z"/>
		</g>
	</g>
	<g id="Shape_12_copy_2">
		<g>
			<path fill="#30373F" d="M413.38,512.765l-8.497,7.174c-0.548,2.325-1.599,4.502-3.156,6.53
				c-2.832,3.692-6.611,5.831-11.336,6.419c-4.567,0.568-8.674-0.493-12.319-3.184c-3.484-2.69-5.263-6.299-5.263-6.299
				c-0.092-0.198-0.164-0.392-0.249-0.588l12.018-2.14c2.136,1.549,5.118,1.515,7.228-0.268c1.263-1.067,1.965-2.553,2.085-4.087
				l16.129-13.643c-2.565-4.381-6.123-7.666-10.672-9.856c-4.554-2.221-9.321-3.022-14.3-2.402
				c-6.977,0.868-12.603,4.097-16.877,9.686c-4.282,5.525-5.991,11.816-5.127,18.873c0.86,7.025,4.046,12.674,9.56,16.948
				c5.573,4.234,11.833,5.919,18.778,5.054c6.85-0.852,12.436-4.011,16.758-9.476C412.425,526.012,414.172,519.766,413.38,512.765z
				 M386.051,498.612c4.567-0.568,8.673,0.493,12.319,3.184l-9.67,8.176c-1.554-0.181-3.175,0.251-4.468,1.344
				c-0.43,0.363-0.771,0.787-1.071,1.232l-12.094,2.121c0.188-3.43,1.373-6.592,3.57-9.482
				C377.488,501.396,381.293,499.204,386.051,498.612z"/>
		</g>
	</g>
	<g>
		<defs>
			<rect id="SVGID_14_" x="388.019" y="489.688" width="26.356" height="54.188"/>
		</defs>
		<clipPath id="SVGID_16_">
			<use xlink:href="#SVGID_14_"  overflow="visible"/>
		</clipPath>
		<g id="Shape_12_copy_2_2_" clip-path="url(#SVGID_16_)">
			<g>
				<path fill="#20262C" d="M413.38,512.765l-8.497,7.174c-0.548,2.325-1.599,4.502-3.156,6.53
					c-2.832,3.692-6.611,5.831-11.336,6.419c-4.567,0.568-8.674-0.493-12.319-3.184c-3.484-2.69-5.263-6.299-5.263-6.299
					c-0.092-0.198-0.164-0.392-0.249-0.588l12.018-2.14c2.136,1.549,5.118,1.515,7.228-0.267c1.263-1.067,1.965-2.553,2.085-4.087
					l16.129-13.643c-2.565-4.381-6.123-7.666-10.672-9.856c-4.554-2.221-9.321-3.022-14.3-2.402
					c-6.977,0.868-12.603,4.097-16.877,9.686c-4.282,5.525-5.991,11.816-5.127,18.873c0.86,7.025,4.046,12.674,9.56,16.948
					c5.573,4.234,11.833,5.919,18.778,5.054c6.85-0.852,12.436-4.011,16.758-9.476C412.425,526.012,414.172,519.766,413.38,512.765z
					 M386.051,498.612c4.567-0.568,8.673,0.493,12.319,3.184l-9.67,8.176c-1.554-0.181-3.175,0.251-4.468,1.344
					c-0.43,0.363-0.771,0.787-1.071,1.232l-12.094,2.121c0.188-3.43,1.373-6.592,3.57-9.482
					C377.488,501.396,381.293,499.204,386.051,498.612z"/>
			</g>
		</g>
	</g>
	<g id="Shape_6">
		<g>
			<polygon fill-rule="evenodd" clip-rule="evenodd" fill="#30373F" points="527.231,562.758 255.035,562.758 217.829,598.032 
				217.829,650.943 558.563,650.943 558.563,596.073 			"/>
		</g>
	</g>
	<g>
		<defs>
			<polygon id="SVGID_13_" points="527.231,562.758 255.035,562.758 217.829,598.032 217.829,650.943 558.563,650.943 
				558.563,596.073 			"/>
		</defs>
		<clipPath id="SVGID_18_">
			<use xlink:href="#SVGID_13_"  overflow="visible"/>
		</clipPath>
		<g id="Shape_10_copy" clip-path="url(#SVGID_18_)">
			<g>
				<path fill="#DFE4DE" d="M280.492,647.024h11.749v-78.387h-11.749V647.024z M331.406,647.024h11.75v-78.387h-11.75V647.024z
					 M382.321,647.024h11.749v-78.387h-11.749V647.024z M433.235,647.024h11.749v-78.387h-11.749V647.024z M484.149,568.637v78.387
					h11.75v-78.387H484.149z"/>
			</g>
		</g>
	</g>
	<g>
		<defs>
			<polygon id="SVGID_15_" points="527.231,562.758 255.035,562.758 217.829,598.032 217.829,650.943 558.563,650.943 
				558.563,596.073 			"/>
		</defs>
		<clipPath id="SVGID_20_">
			<use xlink:href="#SVGID_15_"  overflow="visible"/>
		</clipPath>
		<g id="Shape_10" opacity="0.502" clip-path="url(#SVGID_20_)">
			<g>
				<path fill="#171B1F" d="M525.272,562.758l-270.237-1.96l-23.499,21.556h313.319L525.272,562.758z M509.607,617.629
					l-27.415-7.839h-178.2l-41.123,5.879l-1.958,5.879h-1.958l-9.791,29.395l48.956,11.758l1.958-9.798l-20.684-25.476h234.132
					L509.607,617.629z M560.521,621.548h-31.332v29.395h37.207L560.521,621.548z"/>
			</g>
		</g>
	</g>
	<g>
		<defs>
			<polygon id="SVGID_17_" points="527.231,562.758 255.035,562.758 217.829,598.032 217.829,650.943 558.563,650.943 
				558.563,596.073 			"/>
		</defs>
		<clipPath id="SVGID_22_">
			<use xlink:href="#SVGID_17_"  overflow="visible"/>
		</clipPath>
		<g id="Shape_10_copy_2" clip-path="url(#SVGID_22_)">
			<g>
				<polygon fill-rule="evenodd" clip-rule="evenodd" fill="#DFE4DE" points="495.899,605.871 278.534,605.871 266.785,615.669 
					509.607,615.669 				"/>
			</g>
		</g>
	</g>
	<g id="Ellipse_3_1_">
		<g>
			<path fill="#749294" d="M145.374,746.968h0.067c1.012,16.403,14.619,29.395,31.265,29.395h15.666
				c16.646,0,30.253-12.992,31.265-29.395h0.067v-37.234h-78.33V746.968z M552.688,709.734v37.234h0.067
				c1.012,16.403,14.619,29.395,31.265,29.395h15.666c16.646,0,30.253-12.992,31.265-29.395h0.067v-37.234H552.688z"/>
		</g>
	</g>
	<g>
		<defs>
			<path id="SVGID_19_" d="M145.374,746.968h0.067c1.012,16.403,14.619,29.395,31.265,29.395h15.666
				c16.646,0,30.253-12.992,31.265-29.395h0.067v-37.234h-78.33V746.968z M552.688,709.734v37.234h0.067
				c1.012,16.403,14.619,29.395,31.265,29.395h15.666c16.646,0,30.253-12.992,31.265-29.395h0.067v-37.234H552.688z"/>
		</defs>
		<clipPath id="SVGID_24_">
			<use xlink:href="#SVGID_19_"  overflow="visible"/>
		</clipPath>
		<g id="Shape_11" clip-path="url(#SVGID_24_)">
			<g>
				<polygon fill-rule="evenodd" clip-rule="evenodd" fill="#30373F" points="153.207,692.097 141.457,713.653 213.912,786.161 
					678.015,786.161 683.89,688.177 				"/>
			</g>
		</g>
	</g>
	<g id="Shape_1" opacity="0.4784">
		<g>
			<path fill-rule="evenodd" clip-rule="evenodd" fill="#E7E7E7" d="M569.505,429.071c0,0-6.718-40.172-9.748-58.538
				c-3.029-18.366-24.137-31.496-38.991-35.123c-16.895-4.125-132.57-5.854-132.57-5.854s-115.676,1.729-132.57,5.854
				c-14.854,3.626-35.962,16.757-38.991,35.123c-3.029,18.366-9.748,58.538-9.748,58.538s-2.766,16.106,13.647,13.659
				c16.413-2.447,83.168,13.511,167.662,13.511c84.494,0,151.25-15.958,167.662-13.511
				C572.27,445.177,569.505,429.071,569.505,429.071z"/>
		</g>
	</g>
	<g id="Shape_2" opacity="0.4902">
		<g>
			<path fill="#FFFFFF" d="M272.659,349.153H249.16l64.622,68.589h23.499L272.659,349.153z M233.494,360.911l-3.916,9.798
				l46.998,50.952h9.791v-5.879l-48.956-54.871H233.494z"/>
		</g>
	</g>
	<g id="Shape_7">
		<g>
			<path fill="#DFE4DE" d="M642.767,648.984v-45.073h-86.163v41.153H388.196H219.787v-41.153h-86.163v45.073
				c0,0-13.708,20.311-13.708,29.395v11.758c0,0,23.903,27.435,39.165,27.435c15.261,0,229.114,0,229.114,0s213.853,0,229.114,0
				c15.261,0,39.165-27.435,39.165-27.435v-11.758C656.475,669.295,642.767,648.984,642.767,648.984z"/>
		</g>
	</g>
	<g>
		<defs>
			<path id="SVGID_21_" d="M642.767,648.984v-45.073h-86.163v41.153H219.787v-41.153h-86.163v45.073
				c0,0-13.708,20.311-13.708,29.395v11.758c0,0,23.903,27.435,39.165,27.435c15.261,0,229.114,0,229.114,0s213.853,0,229.114,0
				c15.261,0,39.165-27.435,39.165-27.435v-11.758C656.475,669.295,642.767,648.984,642.767,648.984z"/>
		</defs>
		<clipPath id="SVGID_26_">
			<use xlink:href="#SVGID_21_"  overflow="visible"/>
		</clipPath>
		<g id="Shape_12_1_" opacity="0.749" clip-path="url(#SVGID_26_)">
			<g>
				<path fill="#FFFFFF" d="M223.703,690.137l3.917,5.879h7.833v-52.911h-11.749V690.137z M505.69,643.105v47.032l3.917,5.879h7.833
					v-52.911H505.69z"/>
			</g>
		</g>
	</g>
	<g>
		<defs>
			<path id="SVGID_23_" d="M642.767,648.984v-45.073h-86.163v41.153H219.787v-41.153h-86.163v45.073
				c0,0-13.708,20.311-13.708,29.395v11.758c0,0,23.903,27.435,39.165,27.435c15.261,0,229.114,0,229.114,0s213.853,0,229.114,0
				c15.261,0,39.165-27.435,39.165-27.435v-11.758C656.475,669.295,642.767,648.984,642.767,648.984z"/>
		</defs>
		<clipPath id="SVGID_28_">
			<use xlink:href="#SVGID_23_"  overflow="visible"/>
		</clipPath>
		<g id="Shape_12_copy" clip-path="url(#SVGID_28_)">
			<g>
				<path fill="#BCBCBC" d="M258.952,696.016h5.875l5.875-5.879v-47.032h-11.749V696.016z M540.938,643.105v52.911h5.875
					l5.875-5.879v-47.032H540.938z"/>
			</g>
		</g>
	</g>
	<g>
		<defs>
			<path id="SVGID_25_" d="M642.767,648.984v-45.073h-86.163v41.153H219.787v-41.153h-86.163v45.073
				c0,0-13.708,20.311-13.708,29.395v11.758c0,0,23.903,27.435,39.165,27.435c15.261,0,229.114,0,229.114,0s213.853,0,229.114,0
				c15.261,0,39.165-27.435,39.165-27.435v-11.758C656.475,669.295,642.767,648.984,642.767,648.984z"/>
		</defs>
		<clipPath id="SVGID_30_">
			<use xlink:href="#SVGID_25_"  overflow="visible"/>
		</clipPath>
		<g id="Shape_8" opacity="0.251" clip-path="url(#SVGID_30_)">
			<g>
				<path fill="#30373F" d="M225.661,645.064v-48.992l-92.037,7.839l35.248,41.153H225.661z M615.352,690.137l-54.831-66.629
					h-31.332v21.556h-9.791l33.29,45.073l-5.875,5.879h-35.248l-5.875-5.879H331.406l-54.831-66.629h-29.374v21.556h-9.791
					l33.29,45.073l-5.875,5.879h-35.248l-5.875-5.879H117.958l92.037,92.105L605.56,794l46.998-72.508l3.916-31.355H615.352z
					 M646.683,645.064v-45.073l-82.246-1.96l-5.875,7.839l33.29,39.194H646.683z"/>
			</g>
		</g>
	</g>
	<g id="Ellipse_2">
		<g>
			<path fill="#DFE4DE" d="M649.621,584.315c-0.331,0-0.656,0.02-0.979,0.049v-0.049h-80.288c0,0-26.212-35.274-52.872-35.274
				H388.196H260.91c-26.66,0-52.872,35.274-52.872,35.274h-80.288v0.049c-0.323-0.029-0.649-0.049-0.979-0.049
				c-5.948,0-10.77,4.826-10.77,10.778s4.822,10.778,10.77,10.778c0.331,0,0.656-0.02,0.979-0.049v0.049h92.037
				c0,0,18.379-35.274,45.04-35.274h123.369h123.369c26.66,0,45.04,35.274,45.04,35.274h92.037v-0.049
				c0.323,0.029,0.649,0.049,0.979,0.049c5.948,0,10.77-4.826,10.77-10.778S655.569,584.315,649.621,584.315z"/>
		</g>
	</g>
	<g id="Ellipse_3_copy">
		<g>
			<path fill="#EEEEEE" d="M589.894,502.008c-17.304,0-31.332,14.038-31.332,31.355c0,17.317,14.028,31.355,31.332,31.355
				c17.304,0,31.332-14.038,31.332-31.355C621.226,516.046,607.199,502.008,589.894,502.008z M186.497,502.008
				c-17.304,0-31.332,14.038-31.332,31.355c0,17.317,14.028,31.355,31.332,31.355s31.332-14.038,31.332-31.355
				C217.829,516.046,203.801,502.008,186.497,502.008z"/>
		</g>
	</g>
	<g>
		<defs>
			<path id="SVGID_27_" d="M589.894,502.008c-17.304,0-31.332,14.038-31.332,31.355c0,17.317,14.028,31.355,31.332,31.355
				c17.304,0,31.332-14.038,31.332-31.355C621.226,516.046,607.199,502.008,589.894,502.008z M186.497,502.008
				c-17.304,0-31.332,14.038-31.332,31.355c0,17.317,14.028,31.355,31.332,31.355s31.332-14.038,31.332-31.355
				C217.829,516.046,203.801,502.008,186.497,502.008z"/>
		</defs>
		<clipPath id="SVGID_31_">
			<use xlink:href="#SVGID_27_"  overflow="visible"/>
		</clipPath>
		<g id="Shape_9" opacity="0.251" clip-path="url(#SVGID_31_)">
			<g>
				<path fill="#30373F" d="M558.563,507.887c0,0-16.51,27.882-15.666,29.395c0.845,1.513,22.568,32.915,25.457,33.315
					c2.889,0.399,39.165-5.879,39.165-5.879L558.563,507.887z M139.499,537.282c0.845,1.513,22.568,32.915,25.457,33.315
					c2.889,0.399,39.165-5.879,39.165-5.879l-48.956-56.831C155.165,507.887,138.654,535.769,139.499,537.282z"/>
			</g>
		</g>
	</g>
	<g id="Ellipse_3_copy_2">
		<g>
			<path fill="#EEEEEE" d="M246.223,599.992c-12.437,0-22.52,10.09-22.52,22.536s10.082,22.536,22.52,22.536
				s22.52-10.09,22.52-22.536S258.66,599.992,246.223,599.992z M528.21,599.992c-12.437,0-22.52,10.09-22.52,22.536
				s10.083,22.536,22.52,22.536s22.52-10.09,22.52-22.536S540.647,599.992,528.21,599.992z"/>
		</g>
	</g>
	<g>
		<defs>
			<path id="SVGID_29_" d="M246.223,599.992c-12.437,0-22.52,10.09-22.52,22.536s10.082,22.536,22.52,22.536
				s22.52-10.09,22.52-22.536S258.66,599.992,246.223,599.992z M528.21,599.992c-12.437,0-22.52,10.09-22.52,22.536
				s10.083,22.536,22.52,22.536s22.52-10.09,22.52-22.536S540.647,599.992,528.21,599.992z"/>
		</defs>
		<clipPath id="SVGID_32_">
			<use xlink:href="#SVGID_29_"  overflow="visible"/>
		</clipPath>
		<g id="Shape_9_copy" opacity="0.251" clip-path="url(#SVGID_32_)">
			<g>
				<path fill="#30373F" d="M247.202,648.984l23.499-1.96l7.833-25.476h-31.332V648.984z M529.189,621.548v27.435l23.499-1.96
					l7.833-25.476H529.189z"/>
			</g>
		</g>
	</g>
</g>
<g id="Ellipse_2_2_" enable-background="new    ">
	<g id="Ellipse_2_1_">
		<g>
			<path fill="#FFFFFF" d="M1138.773,11.135c-4.506-4.209-9.472-7.927-14.797-11.106h-88.496
				c-25.287,15.097-42.23,42.721-42.23,74.313c0,47.773,38.727,86.5,86.5,86.5c9.652,0,18.926-1.599,27.594-4.516
				c7.039,7.691,17.158,12.516,28.406,12.516c6.921,0,13.41-1.836,19.022-5.033c19.886,17.448,45.943,28.033,74.478,28.033
				c39.697,0,74.608-20.474,94.763-51.434c8.879,6.554,19.853,10.434,31.737,10.434c29.547,0,53.5-23.953,53.5-53.5
				c0-29.547-23.953-53.5-53.5-53.5c-6.34,0-12.42,1.11-18.064,3.134c-5.25-17.894-14.818-33.936-27.485-46.947h-161.913
				C1144.888,3.522,1141.703,7.227,1138.773,11.135z"/>
		</g>
	</g>
</g>
</svg>
